<?xml version="1.0" encoding="utf-8"?>
<!-- Generator: Adobe Illustrator 27.0.0, SVG Export Plug-In . SVG Version: 6.00 Build 0)  -->
<svg version="1.1" id="Layer_1" xmlns="http://www.w3.org/2000/svg" xmlns:xlink="http://www.w3.org/1999/xlink" x="0px" y="0px"
	 viewBox="0 0 1080 1080" style="enable-background:new 0 0 1080 1080;" xml:space="preserve">
<style type="text/css">
	.st0{fill:#0E1117;}
	.st1{fill:#5F24E0;}
	.st2{fill:#D4D4D4;}
	.st3{fill:#EFE9FC;}
</style>
<g id="Group_28_00000175298799551749906560000017555544200930896572_" transform="translate(0 0.003)">
	<path id="Path_29_00000069364917988365084970000011276794696858025862_" class="st3" d="M592.14,693.39
		c37.89-0.03,75.67,3.98,112.71,11.95c-0.05-0.2-0.1-0.41-0.13-0.63c0.23,0.03,0.43,0.08,0.63,0.13
		c-12.14-56.64-15.06-114.87-8.65-172.45c13.23-119.35,66.87-230.59,152.03-315.26l-118.9-118.9
		C614.19,213.21,542.79,365.26,528.16,527.66l-0.45,0.05c-0.02,0.14-0.03,0.31-0.05,0.45C365.26,542.78,213.2,614.19,98.24,729.83
		l118.9,118.9c84.67-85.16,195.91-138.8,315.26-152.03C552.23,694.49,572.17,693.38,592.14,693.39L592.14,693.39z"/>
	<path class="st3" d="M851.62,970.97c32.81,33.24,62.07,69.78,87.34,109.03H722.49c-73.88-66.96-186.83-66.96-260.7,0h-202.8
		c17.12-39.83,41.71-77.18,73.71-109.92c139.8-143.05,369.1-145.69,512.15-5.88c1.15,1.11,2.27,2.24,3.4,3.37
		S850.5,969.82,851.62,970.97z"/>
	<path class="st3" d="M1080,461.75c-67.14,73.86-67.15,186.97,0,260.82v216.34c-39.23-25.26-75.77-54.52-109-87.32
		c-1.15-1.12-2.26-2.24-3.4-3.37c-1.13-1.13-2.25-2.24-3.37-3.39c-132.26-136.28-136.79-351.58-10.38-493.3
		c36.15-40.54,79.37-71.03,126.15-91.28V461.75z"/>
</g>
</svg>
