<?xml version="1.0" encoding="utf-8"?>
<!-- Generator: Adobe Illustrator 27.0.0, SVG Export Plug-In . SVG Version: 6.00 Build 0)  -->
<svg version="1.1" id="Layer_1" xmlns="http://www.w3.org/2000/svg" xmlns:xlink="http://www.w3.org/1999/xlink" x="0px" y="0px"
	 viewBox="0 0 1080 1080" style="enable-background:new 0 0 1080 1080;" xml:space="preserve">
<style type="text/css">
	.st0{fill:#0E1117;}
	.st1{fill:#5F24E0;}
	.st2{fill:#D4D4D4;}
	.st3{fill:#EFE9FC;}
</style>
<g>
	<g>
		<g>
			<path class="st3" d="M653.45,426.62l-0.03-0.03l-0.03-0.03c-21.9-21.9-51.01-33.96-81.98-33.96c-30.97,0-60.08,12.06-81.97,33.96
				c-20.39,20.39-32.24,47.02-33.78,75.59c0,0.11-0.01,0.22-0.01,0.33l0,0c-0.02,0.32-0.67,10.59-4.54,15.27l17.09,17.09l1.18-1.18
				c6.62-6.62,10.25-15.61,10.23-24.97c0-0.05,0-0.1,0-0.15c0-7.45,0.88-14.76,2.6-21.82c3.92-16.18,12.22-31.03,24.3-43.1
				c17.34-17.34,40.4-26.89,64.92-26.89c24.53,0,47.58,9.55,64.93,26.89l0.03,0.03l0.03,0.03c17.34,17.34,26.89,40.4,26.89,64.93
				c0,24.52-9.55,47.58-26.89,64.92c-12.07,12.07-26.92,20.37-43.1,24.3c-7.06,1.71-14.37,2.6-21.82,2.6c-0.05,0-0.1,0-0.15,0
				c-9.36-0.01-18.35,3.62-24.97,10.23l-1.18,1.18l17.09,17.09c4.68-3.87,14.95-4.52,15.27-4.54l0,0c0.11,0,0.22-0.01,0.33-0.01
				c28.56-1.54,55.2-13.4,75.59-33.78c21.89-21.89,33.96-51.01,33.96-81.97C687.4,477.63,675.35,448.52,653.45,426.62z"/>
			<path class="st3" d="M477.95,616.58c0-5.5,0.58-10.91,1.71-16.16c-0.03,0.01-0.06,0.01-0.09,0.02c0-0.03,0.01-0.06,0.02-0.09
				c-5.25,1.13-10.67,1.71-16.16,1.71c-2.88,0-5.74-0.16-8.57-0.47c-17.07-1.9-32.88-9.48-45.21-21.8l-17.05,17.05
				c16.72,16.72,38.32,26.81,61.58,28.92c0,0.02,0,0.05,0.01,0.07c0.02,0,0.05,0,0.07,0.01c2.11,23.26,12.2,44.86,28.92,61.58
				l17.05-17.05c-12.33-12.33-19.9-28.14-21.8-45.21C478.1,622.32,477.95,619.46,477.95,616.58z"/>
			<path class="st3" d="M534.32,636.25c-10.85-10.85-10.85-28.5,0-39.35c10.92-10.92,25.4-16.92,40.4-20.2
				c7.77-1.69,15.37-2.48,22.77-5.56c7.88-3.28,15.1-8.08,21.21-14.04c0.21-0.21,0.43-0.42,0.64-0.64
				c12.79-12.79,19.83-29.78,19.83-47.87c0-18.08-7.04-35.09-19.83-47.87l-0.03-0.03l-0.03-0.03
				c-12.79-12.79-29.79-19.83-47.87-19.83c-18.09,0-35.09,7.04-47.87,19.83c-0.21,0.21-0.42,0.43-0.64,0.64
				c-5.95,6.11-10.76,13.33-14.04,21.21c-3.08,7.4-3.87,15-5.56,22.77c-3.28,15-9.28,29.48-20.2,40.4
				c-10.85,10.85-28.5,10.85-39.35,0c-10.16-10.16-10.8-26.3-1.93-37.21l-17.1-17.1c-18.28,20.39-17.63,51.76,1.97,71.36
				c1.54,1.54,3.16,2.97,4.85,4.28c20.2,15.75,49.36,14.48,68.12-3.8c0.16-0.16,0.33-0.32,0.49-0.48c0.16-0.16,0.32-0.32,0.48-0.49
				c5.29-5.37,9.83-11.2,13.62-17.37c4.41-7.19,7.74-14.86,10.15-22.92c2.31-7.73,2.96-15.67,4.71-23.51
				c1.76-7.89,5.75-15.01,11.47-20.73c8.23-8.23,19.18-12.77,30.82-12.77c11.64,0,22.59,4.54,30.82,12.77l0.03,0.03l0.03,0.03
				c8.23,8.23,12.77,19.18,12.77,30.82c0,11.65-4.54,22.59-12.77,30.82c-5.72,5.72-12.84,9.7-20.73,11.47
				c-7.84,1.75-15.78,2.41-23.51,4.71c-8.06,2.41-15.73,5.73-22.92,10.15c-6.17,3.79-12,8.33-17.37,13.62
				c-0.16,0.16-0.33,0.32-0.49,0.48c-0.16,0.16-0.32,0.32-0.48,0.49c-18.28,18.76-19.54,47.92-3.8,68.12
				c1.31,1.69,2.74,3.3,4.28,4.85c19.6,19.6,50.97,20.26,71.36,1.97l-17.1-17.1C560.61,647.05,544.48,646.41,534.32,636.25z"/>
		</g>
	</g>
</g>
</svg>
