<svg xmlns="http://www.w3.org/2000/svg" xmlns:xlink="http://www.w3.org/1999/xlink" version="1.1" id="Layer_1" x="0px" y="0px" style="enable-background:new 0 0 1080 1080;" xml:space="preserve" viewBox="265 485.23 549.98 109.54">
<style type="text/css">
	.st0{fill:#0E1117;}
	.st1{fill:#5F24E0;}
	.st2{fill:#D4D4D4;}
	.st3{fill:#EFE9FC;}
</style>
<g>
	<g>
		<path class="st0" d="M396.45,571.88v-63.76c0-0.54,0.44-0.98,0.98-0.98h48.29c4.27,0,8,0.93,11.19,2.77    c3.19,1.85,5.68,4.42,7.46,7.7c1.78,3.29,2.68,7.06,2.68,11.34c0,4.27-0.91,8.08-2.73,11.43c-1.82,3.35-4.35,5.95-7.61,7.8    c-3.25,1.85-7.02,2.77-11.29,2.77H413v20.92c0,0.54-0.44,0.98-0.98,0.98h-14.58C396.89,572.86,396.45,572.42,396.45,571.88z     M413,536.86c0,0.54,0.44,0.98,0.98,0.98h26.86c3.19,0,5.64-0.77,7.37-2.3c1.72-1.53,2.58-3.7,2.58-6.51    c0-1.85-0.38-3.43-1.15-4.74c-0.77-1.31-1.9-2.33-3.4-3.06c-1.5-0.73-3.3-1.1-5.41-1.1h-26.86c-0.54,0-0.98,0.44-0.98,0.98V536.86    z"/>
		<path class="st0" d="M478.53,571.88v-63.76c0-0.54,0.44-0.98,0.98-0.98h52.11c4.72,0,8.59,0.96,11.62,2.87    c3.03,1.91,5.31,4.43,6.84,7.56c1.53,3.13,2.3,6.6,2.3,10.43c0,3.96-1,7.64-3.01,11.05c-2.01,3.41-5.06,6.11-9.14,8.08    l12.91,24.29c0.35,0.65-0.13,1.44-0.87,1.44h-16.32c-0.37,0-0.71-0.21-0.88-0.54l-11.3-22.23h-28.7v21.79    c0,0.54-0.44,0.98-0.98,0.98h-14.58C478.97,572.86,478.53,572.42,478.53,571.88z M495.08,536.1c0,0.54,0.44,0.98,0.98,0.98h30.68    c2.68,0,4.8-0.81,6.36-2.44c1.56-1.63,2.34-3.71,2.34-6.27c0-1.78-0.35-3.28-1.05-4.5c-0.7-1.21-1.69-2.14-2.97-2.77    c-1.28-0.64-2.84-0.96-4.69-0.96h-30.68c-0.54,0-0.98,0.44-0.98,0.98V536.1z"/>
		<path class="st0" d="M606.82,574.01c-8.74,0-16.31-1.34-22.72-4.02c-6.41-2.68-11.34-6.55-14.78-11.62    c-3.44-5.07-5.17-11.21-5.17-18.42c0-7.21,1.72-13.35,5.17-18.42c3.44-5.07,8.37-8.93,14.78-11.58    c6.41-2.65,13.98-3.97,22.72-3.97c8.8,0,16.39,1.32,22.77,3.97c6.38,2.65,11.29,6.51,14.73,11.58c3.44,5.07,5.17,11.21,5.17,18.42    c0,7.21-1.72,13.35-5.17,18.42c-3.44,5.07-8.36,8.95-14.73,11.62C623.22,572.67,615.63,574.01,606.82,574.01z M606.82,560.9    c3.76,0,7.21-0.43,10.33-1.29c3.12-0.86,5.84-2.12,8.13-3.78c2.3-1.66,4.07-3.75,5.31-6.27c1.24-2.52,1.87-5.37,1.87-8.56v-2.2    c0-3.19-0.62-6.03-1.87-8.51c-1.24-2.49-3.01-4.56-5.31-6.22c-2.3-1.66-5.01-2.92-8.13-3.78c-3.13-0.86-6.57-1.29-10.33-1.29    c-3.76,0-7.21,0.43-10.33,1.29c-3.13,0.86-5.84,2.12-8.13,3.78c-2.3,1.66-4.07,3.73-5.31,6.22c-1.24,2.49-1.87,5.33-1.87,8.51v2.2    c0,3.19,0.62,6.04,1.87,8.56c1.24,2.52,3.01,4.61,5.31,6.27c2.3,1.66,5.01,2.92,8.13,3.78    C599.62,560.47,603.06,560.9,606.82,560.9z"/>
		<path class="st0" d="M684.32,571.88v-50.77h-28c-0.54,0-0.98-0.44-0.98-0.98v-12c0-0.54,0.44-0.98,0.98-0.98h72.37    c0.54,0,0.98,0.44,0.98,0.98v12c0,0.54-0.44,0.98-0.98,0.98h-27.91v50.77c0,0.54-0.44,0.98-0.98,0.98H685.3    C684.76,572.86,684.32,572.42,684.32,571.88z"/>
		<path class="st0" d="M777.78,574.01c-8.42,0-15.39-1.28-20.9-3.83c-5.52-2.55-9.63-6.19-12.34-10.91    c-2.71-4.72-4.07-10.33-4.07-16.84v-34.32c0-0.54,0.44-0.98,0.98-0.98h14.58c0.54,0,0.98,0.44,0.98,0.98v33.55    c0,6.12,1.8,10.86,5.41,14.21c3.6,3.35,8.72,5.02,15.35,5.02c6.63,0,11.75-1.67,15.35-5.02c3.6-3.35,5.41-8.08,5.41-14.21v-33.55    c0-0.54,0.44-0.98,0.98-0.98h14.49c0.54,0,0.98,0.44,0.98,0.98v34.32c0,6.51-1.34,12.12-4.02,16.84    c-2.68,4.72-6.78,8.36-12.29,10.91C793.17,572.74,786.2,574.01,777.78,574.01z"/>
	</g>
	<g>
		<g>
			<path class="st1" d="M361.92,497.87l-0.01-0.01l-0.01-0.01c-8.14-8.14-18.95-12.62-30.46-12.62c-11.51,0-22.32,4.48-30.46,12.62     c-7.57,7.57-11.98,17.47-12.55,28.09c0,0.04,0,0.08-0.01,0.12l0,0c-0.01,0.12-0.25,3.94-1.69,5.68l6.35,6.35l0.44-0.44     c2.46-2.46,3.81-5.8,3.8-9.28c0-0.02,0-0.04,0-0.05c0-2.77,0.33-5.49,0.97-8.11c1.46-6.01,4.54-11.53,9.03-16.02     c6.44-6.44,15.01-9.99,24.12-9.99c9.11,0,17.68,3.55,24.12,9.99l0.01,0.01l0.01,0.01c6.44,6.44,9.99,15.01,9.99,24.12     c0,9.11-3.55,17.68-9.99,24.12c-4.49,4.49-10,7.57-16.02,9.03c-2.62,0.64-5.34,0.97-8.11,0.97c-0.02,0-0.04,0-0.05,0     c-3.48-0.01-6.82,1.34-9.28,3.8l-0.44,0.44l6.35,6.35c1.74-1.44,5.56-1.68,5.68-1.69l0,0c0.04,0,0.08,0,0.12-0.01     c10.61-0.57,20.51-4.98,28.08-12.55c8.14-8.14,12.62-18.95,12.62-30.46C374.54,516.83,370.06,506.01,361.92,497.87z"/>
			<path class="st1" d="M296.71,568.45c0-2.04,0.22-4.06,0.64-6.01c-0.01,0-0.02,0.01-0.03,0.01c0-0.01,0-0.02,0.01-0.03     c-1.95,0.42-3.96,0.64-6.01,0.64c-1.07,0-2.13-0.06-3.18-0.18c-6.34-0.71-12.22-3.52-16.8-8.1l-6.34,6.34     c6.21,6.21,14.24,9.96,22.88,10.75c0,0.01,0,0.02,0,0.02c0.01,0,0.02,0,0.02,0c0.79,8.64,4.53,16.67,10.75,22.88l6.34-6.34     c-4.58-4.58-7.39-10.45-8.1-16.8C296.77,570.59,296.71,569.52,296.71,568.45z"/>
			<path class="st1" d="M317.66,575.76c-4.03-4.03-4.03-10.59,0-14.62c4.06-4.06,9.44-6.29,15.01-7.51     c2.89-0.63,5.71-0.92,8.46-2.07c2.93-1.22,5.61-3,7.88-5.22c0.08-0.08,0.16-0.16,0.24-0.24c4.75-4.75,7.37-11.07,7.37-17.79     c0-6.72-2.62-13.04-7.37-17.79l-0.01-0.01l-0.01-0.01c-4.75-4.75-11.07-7.37-17.79-7.37c-6.72,0-13.04,2.62-17.79,7.37     c-0.08,0.08-0.16,0.16-0.24,0.24c-2.21,2.27-4,4.95-5.22,7.88c-1.14,2.75-1.44,5.57-2.07,8.46c-1.22,5.58-3.45,10.95-7.51,15.01     c-4.03,4.03-10.59,4.03-14.62,0c-3.78-3.78-4.01-9.77-0.72-13.83l-6.35-6.35c-6.79,7.58-6.55,19.23,0.73,26.52     c0.57,0.57,1.17,1.1,1.8,1.59c7.51,5.85,18.34,5.38,25.31-1.41c0.06-0.06,0.12-0.12,0.18-0.18c0.06-0.06,0.12-0.12,0.18-0.18     c1.97-2,3.65-4.16,5.06-6.46c1.64-2.67,2.87-5.52,3.77-8.52c0.86-2.87,1.1-5.82,1.75-8.74c0.65-2.93,2.14-5.58,4.26-7.7     c3.06-3.06,7.13-4.74,11.45-4.74c4.33,0,8.39,1.69,11.45,4.74l0.01,0.01l0.01,0.01c3.06,3.06,4.75,7.13,4.75,11.45     c0,4.33-1.69,8.39-4.74,11.45c-2.13,2.13-4.77,3.61-7.7,4.26c-2.91,0.65-5.86,0.89-8.74,1.75c-2.99,0.89-5.85,2.13-8.52,3.77     c-2.29,1.41-4.46,3.09-6.46,5.06c-0.06,0.06-0.12,0.12-0.18,0.18s-0.12,0.12-0.18,0.18c-6.79,6.97-7.26,17.8-1.41,25.31     c0.49,0.63,1.02,1.23,1.59,1.8c7.28,7.28,18.94,7.53,26.52,0.73l-6.35-6.35C327.43,579.78,321.44,579.54,317.66,575.76z"/>
		</g>
	</g>
</g>
</svg>