<?xml version="1.0" encoding="utf-8"?>
<!-- Generator: Adobe Illustrator 27.0.0, SVG Export Plug-In . SVG Version: 6.00 Build 0)  -->
<svg version="1.1" id="Layer_1" xmlns="http://www.w3.org/2000/svg" xmlns:xlink="http://www.w3.org/1999/xlink" x="0px" y="0px"
	 viewBox="0 0 1080 1080" style="enable-background:new 0 0 1080 1080;" xml:space="preserve">
<style type="text/css">
	.st0{fill:#5F24E0;}
	.st1{opacity:0;}
</style>
<g id="fingerprint" transform="translate(939.951 282.75)">
	<g id="Group_48" transform="translate(1.156 1.25)">
		<path id="Path_60" class="st0" d="M-305.41,359.05c-1.38,0.01-2.76-0.22-4.07-0.66c-6.68-2.34-10.22-9.63-7.94-16.32
			c10.82-33.09,16.21-67.7,15.98-102.51c0.37-49.33-39.25-89.65-88.58-90.14c-21.33,0.04-41.92,7.85-57.91,21.97
			c-5.17,4.58-13.08,4.09-17.65-1.08c-0.07-0.08-0.14-0.16-0.21-0.25c-4.56-5.41-3.97-13.47,1.32-18.16
			c20.55-18.15,47.02-28.19,74.44-28.23c63.42,0.61,114.38,52.44,113.92,115.86c0.22,37.61-5.63,75.01-17.34,110.75
			c-1.69,5.19-6.52,8.71-11.98,8.73L-305.41,359.05z"/>
		<path id="Path_61" class="st0" d="M-513.47,314.51c-6.99-0.01-12.65-5.68-12.64-12.67c0-2.33,0.65-4.62,1.88-6.61
			c10.32-16.85,16.02-36.11,16.54-55.86c-0.04-16.75,3.68-33.31,10.86-48.44c2.73-6.43,10.16-9.43,16.59-6.7
			c6.43,2.73,9.43,10.16,6.7,16.59c-0.13,0.3-0.27,0.6-0.42,0.89c-5.56,11.77-8.43,24.63-8.4,37.65
			c-0.62,24.42-7.62,48.25-20.31,69.13C-504.98,312.23-509.07,314.51-513.47,314.51z"/>
		<path id="Path_62" class="st0" d="M-375.57,388.33c-2.26,0-4.47-0.6-6.41-1.75c-6.01-3.55-8.02-11.3-4.49-17.33
			c16.71-28.56,27.36-60.26,31.29-93.12c0.86-6.94,7.18-11.88,14.12-11.02c6.94,0.86,11.88,7.18,11.02,14.12
			c-4.34,36.3-16.13,71.31-34.62,102.84c-2.28,3.86-6.43,6.24-10.92,6.25V388.33z"/>
		<path id="Path_63" class="st0" d="M-480.29,357.82c-6.99,0.01-12.67-5.65-12.68-12.64c0-2.95,1.02-5.81,2.9-8.08
			c22.05-26.89,33.77-60.78,33.02-95.56c-0.04-34.96,28.27-63.32,63.22-63.36c31.82-0.03,58.73,23.57,62.83,55.13
			c0.9,6.94-4,13.3-10.94,14.2c-6.94,0.9-13.3-4-14.2-10.94l0,0c-2.73-20.79-21.8-35.42-42.59-32.69
			c-18.9,2.49-33.03,18.6-33.01,37.67c0.82,40.67-12.94,80.29-38.79,111.69C-472.93,356.14-476.51,357.83-480.29,357.82
			L-480.29,357.82z"/>
		<path id="Path_64" class="st0" d="M-433.47,382.77c-6.99-0.01-12.65-5.68-12.64-12.68c0-2.76,0.91-5.45,2.58-7.64
			c26.05-34.85,39.68-77.41,38.75-120.9c0-6.99,5.67-12.66,12.66-12.66c6.99,0,12.66,5.67,12.66,12.66
			c0.98,49.04-14.48,97-43.93,136.23c-2.39,3.16-6.13,5.01-10.09,5H-433.47z"/>
	</g>
</g>
</svg>
