<?xml version="1.0" encoding="utf-8"?>
<!-- Generator: Adobe Illustrator 27.0.0, SVG Export Plug-In . SVG Version: 6.00 Build 0)  -->
<svg version="1.1" id="Layer_1" xmlns="http://www.w3.org/2000/svg" xmlns:xlink="http://www.w3.org/1999/xlink" x="0px" y="0px"
	 viewBox="0 0 1080 1080" style="enable-background:new 0 0 1080 1080;" xml:space="preserve">
<style type="text/css">
	.st0{fill:#5F24E0;}
	.st1{opacity:0;}
</style>
<g id="d-edit" transform="translate(-2 -1.379)">
	<g id="Group_65">
		<path class="st0" d="M610.99,666.37H453.37c-20.06,0-36.37-16.32-36.37-36.37V472.39c0-20.06,16.32-36.37,36.37-36.37h72.75v24.25
			h-72.75c-6.69,0-12.12,5.43-12.12,12.12V630c0,6.69,5.43,12.12,12.12,12.12h157.62c6.69,0,12.12-5.43,12.12-12.12v-72.75h24.25
			V630C647.36,650.06,631.05,666.37,610.99,666.37z"/>
		
			<rect x="595.83" y="449.7" transform="matrix(0.7071 -0.7071 0.7071 0.7071 -158.1038 569.1374)" class="st0" width="24.25" height="51.44"/>
		<path class="st0" d="M473.09,610.29l17.83-71.36l111.5-111.49c14.75-14.74,38.74-14.74,53.52-0.01
			c14.75,14.75,14.75,38.76,0.01,53.53l-111.5,111.5L473.09,610.29z M538.24,581.5h0.12H538.24z M512.82,551.34l-6.42,25.63
			l25.63-6.42l106.75-106.74c5.29-5.3,5.29-13.92,0-19.23c-5.3-5.3-13.92-5.3-19.23,0L512.82,551.34z"/>
	</g>
</g>
</svg>
