<?xml version="1.0" encoding="utf-8"?>
<!-- Generator: Adobe Illustrator 27.0.0, SVG Export Plug-In . SVG Version: 6.00 Build 0)  -->
<svg version="1.1" id="Layer_1" xmlns="http://www.w3.org/2000/svg" xmlns:xlink="http://www.w3.org/1999/xlink" x="0px" y="0px"
	 viewBox="0 0 1080 1080" style="enable-background:new 0 0 1080 1080;" xml:space="preserve">
<style type="text/css">
	.st0{fill:#5F24E0;}
	.st1{opacity:0;}
</style>
<g id="NM_BT_00000157300532250368329060000012392046499410582953_" transform="translate(-1806.238 -28.228)">
	<path id="NM_00000080171459465199376880000014519398355390614955_" class="st0" d="M2474.15,571.6
		c-2.02,70.65-60.93,126.3-131.58,124.28c-70.65-2.02-126.3-60.93-124.28-131.58c1.84-64.47,51.36-117.49,115.55-123.73
		c4.18-0.38,8.14,1.91,9.89,5.72c1.76,3.85,0.84,8.4-2.28,11.26c-15.92,14.88-24.92,35.72-24.83,57.5
		c-0.07,43.6,35.21,78.99,78.81,79.06c23.78,0.04,46.31-10.64,61.33-29.08c3.51-4.19,9.74-4.74,13.93-1.24
		c2.31,1.93,3.62,4.82,3.54,7.83"/>
</g>
</svg>
