<?xml version="1.0" encoding="utf-8"?>
<!-- Generator: Adobe Illustrator 27.0.0, SVG Export Plug-In . SVG Version: 6.00 Build 0)  -->
<svg version="1.1" id="Layer_1" xmlns="http://www.w3.org/2000/svg" xmlns:xlink="http://www.w3.org/1999/xlink" x="0px" y="0px"
	 viewBox="0 0 1080 1080" style="enable-background:new 0 0 1080 1080;" xml:space="preserve">
<style type="text/css">
	.st0{fill:#5F24E0;}
	.st1{opacity:0;}
</style>
<g id="Component_10_22" transform="translate(0.707 0.707)">
	<g id="Group_45" transform="translate(0.375 0.375)">
		<path class="st0" d="M505.75,582.24l-5.08-5.08c-21.1-21.09-21.1-55.42,0-76.51c21.09-21.09,55.42-21.09,76.51,0l5.08,5.08
			l-10.15,10.15l-5.08-5.08c-15.52-15.52-40.71-15.49-56.21,0c-15.49,15.49-15.49,40.71,0,56.21l5.08,5.08L505.75,582.24z"/>
		<path class="st0" d="M538.85,593.01c-1.09,0-2.19-0.01-3.24-0.1l-7.15-0.57l1.15-14.31l7.15,0.59c0.69,0.06,1.4,0.06,2.09,0.04
			c21.91,0,39.75-17.82,39.75-39.73v-9.79h14.36v9.79C592.95,568.74,568.68,593.01,538.85,593.01z"/>
		<path class="st0" d="M474.76,604.85c-22.67-15.9-40.62-37.69-51.87-63.02l-1.23-2.78l1.14-2.8c0.32-0.83,34.04-82.7,116.13-82.7
			c0.22,0,0.45,0,0.67,0c22.64,0,44.55,6.69,63.38,19.35l-8.02,11.92c-16.45-11.08-35.6-16.91-55.41-16.91c-0.2,0-0.39,0-0.59,0
			c-64.48,0-95.38,57.66-101.63,70.97c10.25,21.73,25.99,40.43,45.68,54.23L474.76,604.85z"/>
		<path class="st0" d="M538.44,624.27c-10.57,0-21.13-1.46-31.33-4.35l-6.91-1.96l3.91-13.81l6.9,1.95
			c9.07,2.58,18.37,3.39,27.89,3.81c65.15,0,95.4-57.38,101.63-70.93c-5.94-12.67-13.74-24.34-23.19-34.71l-4.84-5.31l10.61-9.66
			l4.82,5.3c11.2,12.3,20.29,26.22,27.02,41.41l1.22,2.76l-1.12,2.8c-0.32,0.83-34.03,82.69-116.13,82.69
			C538.76,624.27,538.6,624.27,538.44,624.27z"/>
		
			<rect x="369.32" y="531.74" transform="matrix(0.7071 -0.7071 0.7071 0.7071 -223.2271 538.918)" class="st0" width="339.2" height="14.35"/>
	</g>
	<g id="view-3" transform="translate(-17.051 -8.66)" class="st1">
		<g id="Group_46" transform="translate(17.202 11)">
			<path class="st0" d="M540.24,583.12c-27.7,0-50.25-19.32-50.25-43.07c0-23.75,22.54-43.07,50.25-43.07s50.25,19.32,50.25,43.07
				C590.48,563.8,567.94,583.12,540.24,583.12z M540.24,511.34c-19.8,0-35.89,12.88-35.89,28.71c0,15.83,16.09,28.71,35.89,28.71
				c19.8,0,35.89-12.88,35.89-28.71C576.13,524.22,560.03,511.34,540.24,511.34z"/>
			<path class="st0" d="M540.24,625.39c-85.14,0-120.09-84.92-120.43-85.77l-1.07-2.66l1.07-2.66
				c0.34-0.86,35.29-85.77,120.43-85.77c85.13,0,120.09,84.92,120.43,85.77l1.07,2.66l-1.07,2.66
				C660.33,540.47,625.38,625.39,540.24,625.39z M434.29,536.95c6.29,13.77,37.78,74.08,105.95,74.08s99.65-60.31,105.95-74.08
				c-6.31-13.77-37.8-74.08-105.95-74.08C472.07,462.87,440.58,523.19,434.29,536.95z"/>
		</g>
	</g>
</g>
</svg>
