<?xml version="1.0" encoding="utf-8"?>
<!-- Generator: Adobe Illustrator 27.0.0, SVG Export Plug-In . SVG Version: 6.00 Build 0)  -->
<svg version="1.1" id="Layer_1" xmlns="http://www.w3.org/2000/svg" xmlns:xlink="http://www.w3.org/1999/xlink" x="0px" y="0px"
	 viewBox="0 0 1080 1080" style="enable-background:new 0 0 1080 1080;" xml:space="preserve">
<style type="text/css">
	.st0{fill:#5F24E0;}
	.st1{opacity:0;}
</style>
<g id="Group_31">
	<path id="Path_33" class="st0" d="M533.74,731.53c-67.37-4.6-119.46-60.97-118.73-128.49V442.69
		c-0.55-47.92,35.23-88.5,82.85-93.94c50.46-4.83,95.27,32.16,100.1,82.62c0.27,2.87,0.41,5.76,0.42,8.65V588
		c0.41,29.8-21.22,55.34-50.68,59.84c-31.99,4.21-61.33-18.31-65.53-50.3c-0.33-2.5-0.5-5.02-0.5-7.54V448.3
		c0.01-4.6,3.73-8.32,8.33-8.33h16.67c4.6,0.01,8.32,3.73,8.33,8.33v140.71c-0.23,12.18,8.14,22.84,20.02,25.51
		c13.56,2.73,26.76-6.04,29.5-19.6c0.33-1.62,0.49-3.27,0.49-4.92v-148c0.43-29.81-21.19-55.36-50.66-59.88
		c-31.99-4.21-61.33,18.31-65.53,50.3c-0.33,2.5-0.5,5.02-0.5,7.54v164.01c-0.56,47.93,35.23,88.51,82.85,93.94
		c50.46,4.83,95.27-32.16,100.1-82.62c0.27-2.87,0.41-5.76,0.42-8.65V398.29c0.01-4.6,3.73-8.32,8.33-8.33h16.67
		c4.6,0.01,8.32,3.73,8.33,8.33v208.37c-0.07,69.12-56.16,125.09-125.28,125.02C537.73,731.68,535.73,731.63,533.74,731.53z"/>
</g>
</svg>
