<?xml version="1.0" encoding="utf-8"?>
<!-- Generator: Adobe Illustrator 27.0.0, SVG Export Plug-In . SVG Version: 6.00 Build 0)  -->
<svg version="1.1" id="Layer_1" xmlns="http://www.w3.org/2000/svg" xmlns:xlink="http://www.w3.org/1999/xlink" x="0px" y="0px"
	 viewBox="0 0 1080 1080" style="enable-background:new 0 0 1080 1080;" xml:space="preserve">
<style type="text/css">
	.st0{fill:#5F24E0;}
	.st1{opacity:0;}
</style>
<g id="Group_16" transform="translate(-10)">
	<path class="st0" d="M603.57,423.93H496.43c-39.46,0-71.43,31.96-71.43,71.43v89.29c0,39.46,31.96,71.43,71.43,71.43h107.14
		c39.46,0,71.43-31.96,71.43-71.43v-89.29C675,455.89,643.04,423.93,603.57,423.93z M612.5,548.93h-53.57v53.57
		c0,4.91-4.02,8.93-8.93,8.93s-8.93-4.02-8.93-8.93v-53.57H487.5c-4.91,0-8.93-4.02-8.93-8.93c0-4.91,4.02-8.93,8.93-8.93h53.57
		V477.5c0-4.91,4.02-8.93,8.93-8.93s8.93,4.02,8.93,8.93v53.57h53.57c4.91,0,8.93,4.02,8.93,8.93
		C621.43,544.91,617.41,548.93,612.5,548.93z"/>
</g>
</svg>
