<?xml version="1.0" encoding="utf-8"?>
<!-- Generator: Adobe Illustrator 27.0.0, SVG Export Plug-In . SVG Version: 6.00 Build 0)  -->
<svg version="1.1" id="Layer_1" xmlns="http://www.w3.org/2000/svg" xmlns:xlink="http://www.w3.org/1999/xlink" x="0px" y="0px"
	 viewBox="0 0 1080 1080" style="enable-background:new 0 0 1080 1080;" xml:space="preserve">
<style type="text/css">
	.st0{fill:#5F24E0;}
	.st1{opacity:0;}
</style>
<g id="Group_51" transform="translate(89.107 -1.533)">
	<path id="Rectangle_56" class="st0" d="M364.35,503.07c-10.62,0.01-19.22,8.61-19.23,19.23v38.46
		c0.01,10.62,8.61,19.22,19.23,19.23h173.08c10.62-0.01,19.22-8.61,19.23-19.23V522.3c-0.01-10.62-8.61-19.22-19.23-19.23H364.35
		 M364.35,483.84h173.08c21.24,0,38.46,17.22,38.46,38.46v38.46c0,21.24-17.22,38.46-38.46,38.46H364.35
		c-21.24,0-38.46-17.22-38.46-38.46V522.3C325.89,501.06,343.11,483.84,364.35,483.84z"/>
	<g id="Group_50" transform="translate(1027.656 302.9)">
		<ellipse id="Ellipse_15" class="st0" cx="-634.27" cy="238.63" rx="13.69" ry="16.43"/>
		<circle id="Ellipse_16" class="st0" cx="-576.76" cy="238.63" r="16.43"/>
		<ellipse id="Ellipse_17" class="st0" cx="-519.25" cy="238.63" rx="13.69" ry="16.43"/>
	</g>
</g>
</svg>
