<?xml version="1.0" encoding="utf-8"?>
<!-- Generator: Adobe Illustrator 27.0.0, SVG Export Plug-In . SVG Version: 6.00 Build 0)  -->
<svg version="1.1" id="Layer_1" xmlns="http://www.w3.org/2000/svg" xmlns:xlink="http://www.w3.org/1999/xlink" x="0px" y="0px"
	 viewBox="0 0 1080 1080" style="enable-background:new 0 0 1080 1080;" xml:space="preserve">
<style type="text/css">
	.st0{fill:#5F24E0;}
	.st1{opacity:0;}
</style>
<g id="Group_52" transform="translate(-373.532 -159.318)">
	<path id="Path_65-2" class="st0" d="M913.53,824.32c-11.69,0-21.14-7.14-29.48-13.44c-4.05-3.35-8.48-6.21-13.19-8.54
		c-5.2-1.8-10.6-2.99-16.08-3.56c-10.67-1.56-21.71-3.17-29.62-11.08c-7.91-7.91-9.54-18.95-11.09-29.64
		c-0.56-5.48-1.76-10.88-3.56-16.09c-2.32-4.71-5.19-9.13-8.54-13.18c-6.3-8.34-13.44-17.79-13.44-29.48s7.14-21.14,13.43-29.48
		c3.35-4.05,6.21-8.48,8.54-13.19c1.8-5.2,3-10.6,3.56-16.08c1.56-10.67,3.17-21.71,11.08-29.62c7.91-7.91,18.95-9.54,29.64-11.09
		c5.48-0.56,10.88-1.76,16.09-3.56c4.71-2.32,9.13-5.19,13.18-8.54c8.34-6.3,17.79-13.44,29.48-13.44s21.14,7.14,29.48,13.43
		c4.05,3.35,8.48,6.22,13.2,8.54c5.21,1.8,10.61,2.99,16.09,3.56c10.67,1.56,21.71,3.17,29.62,11.08
		c7.91,7.91,9.53,18.95,11.08,29.64c0.56,5.48,1.76,10.88,3.56,16.09c2.32,4.71,5.19,9.14,8.54,13.19
		c6.3,8.34,13.44,17.79,13.44,29.48s-7.14,21.14-13.43,29.48c-3.35,4.05-6.21,8.48-8.54,13.19c-1.8,5.21-2.99,10.61-3.56,16.09
		c-1.56,10.67-3.17,21.71-11.08,29.62s-18.95,9.52-29.62,11.08c-5.48,0.56-10.88,1.76-16.09,3.56c-4.71,2.32-9.14,5.19-13.19,8.54
		C934.67,817.18,925.22,824.32,913.53,824.32z M913.53,593.95c-5.11,0-11.48,4.81-17.65,9.47c-5.35,4.39-11.23,8.08-17.5,11.01
		c-6.7,2.46-13.68,4.09-20.78,4.84c-6.58,0.16-12.99,2.08-18.58,5.54c-3.46,5.59-5.37,12.01-5.54,18.58
		c-0.76,7.1-2.38,14.08-4.84,20.78c-2.92,6.27-6.62,12.15-11.01,17.5c-4.66,6.16-9.47,12.54-9.47,17.65
		c0,5.11,4.81,11.48,9.47,17.65c4.39,5.35,8.08,11.23,11.01,17.5c2.46,6.7,4.09,13.67,4.84,20.77c0.16,6.58,2.08,12.99,5.54,18.58
		c5.59,3.46,12.01,5.37,18.58,5.54c7.1,0.76,14.08,2.38,20.78,4.84c6.27,2.92,12.15,6.62,17.5,11.01
		c6.16,4.66,12.54,9.47,17.65,9.47s11.48-4.81,17.65-9.47c5.35-4.39,11.23-8.08,17.5-11.01c6.7-2.46,13.68-4.09,20.77-4.84
		c6.58-0.16,12.99-2.08,18.58-5.54c3.46-5.59,5.37-12.01,5.54-18.58c0.76-7.1,2.38-14.08,4.84-20.77
		c2.92-6.27,6.62-12.15,11.01-17.5c4.66-6.17,9.47-12.54,9.47-17.65c0-5.11-4.81-11.48-9.47-17.65c-4.39-5.35-8.08-11.23-11.01-17.5
		c-2.46-6.7-4.09-13.68-4.84-20.78c-0.16-6.58-2.08-12.99-5.54-18.58c-5.59-3.46-12.01-5.37-18.58-5.54
		c-7.1-0.76-14.08-2.38-20.77-4.84c-6.27-2.92-12.15-6.62-17.5-11.01C925.01,598.76,918.64,593.95,913.53,593.95z"/>
	<path id="Path_66" class="st0" d="M971.54,679.46l-67.22,67.23c-1.8,1.8-4.71,1.8-6.51,0c0,0,0,0,0,0l-42.29-42.29
		c-1.79-1.8-1.79-4.71,0-6.51l10.29-10.29c1.8-1.79,4.71-1.79,6.51,0l26.94,26.94c1,1,2.61,1,3.61,0l51.88-51.87
		c1.8-1.8,4.71-1.8,6.51,0c0,0,0,0,0,0l10.29,10.29C973.35,674.74,973.34,677.66,971.54,679.46z"/>
</g>
</svg>
