<?xml version="1.0" encoding="utf-8"?>
<!-- Generator: Adobe Illustrator 27.0.0, SVG Export Plug-In . SVG Version: 6.00 Build 0)  -->
<svg version="1.1" id="Layer_1" xmlns="http://www.w3.org/2000/svg" xmlns:xlink="http://www.w3.org/1999/xlink" x="0px" y="0px"
	 viewBox="0 0 1080 1080" style="enable-background:new 0 0 1080 1080;" xml:space="preserve">
<style type="text/css">
	.st0{fill:#5F24E0;}
	.st1{opacity:0;}
</style>
<g id="profile" transform="translate(-2.352 -0.5)">
	<g id="Group_57" transform="translate(3 1)">
		<path class="st0" d="M539.35,534.62c-28.99,0-52.58-23.58-52.58-52.57v-22.97c0.01-28.97,23.59-52.55,52.56-52.56
			c0.01,0,0.01,0,0.03,0c28.97,0,52.56,23.57,52.57,52.55v22.98C591.92,511.04,568.33,534.62,539.35,534.62z M539.35,419.77
			c-0.01,0-0.01,0-0.03,0c-21.66,0.01-39.3,17.65-39.31,39.32v22.97c0,21.69,17.65,39.33,39.34,39.33s39.33-17.64,39.33-39.33
			v-22.97C578.67,437.4,561.03,419.77,539.35,419.77z"/>
		<path class="st0" d="M539.44,672.48c-0.05,0-0.12,0-0.19,0c-39.43,0-79-3.91-117.62-11.63l-7.28-1.45l19.82-61.63
			c7.13-20.04,24.47-34.16,45.34-37.06c39.64-6.52,80.01-6.54,119.83,0.03c20.69,2.86,38.05,16.98,45.11,36.84l0.06,0.19
			l19.84,61.63l-7.28,1.45C618.44,668.56,578.87,672.48,539.44,672.48z M539.35,659.23c0.03,0,0.06,0,0.09,0
			c36.08,0,72.28-3.35,107.75-9.96l-15.25-47.36c-5.42-15.13-18.66-25.89-34.58-28.09c-38.56-6.34-77.49-6.34-115.87-0.03
			c-16.11,2.24-29.38,13.04-34.79,28.21l-15.2,47.27c35.45,6.61,71.66,9.96,107.74,9.96C539.29,659.23,539.31,659.23,539.35,659.23z
			"/>
	</g>
</g>
</svg>
