<?xml version="1.0" encoding="utf-8"?>
<!-- Generator: Adobe Illustrator 27.0.0, SVG Export Plug-In . SVG Version: 6.00 Build 0)  -->
<svg version="1.1" id="Layer_1" xmlns="http://www.w3.org/2000/svg" xmlns:xlink="http://www.w3.org/1999/xlink" x="0px" y="0px"
	 viewBox="0 0 1080 1080" style="enable-background:new 0 0 1080 1080;" xml:space="preserve">
<style type="text/css">
	.st0{fill:#5F24E0;}
	.st1{opacity:0;}
</style>
<g id="dock-bottom-3" transform="translate(-1 -3)">
	<g id="Group_9">
		<path class="st0" d="M632.67,651.33H449.33c-18.38,0-33.33-14.95-33.33-33.33V468c0-18.38,14.95-33.33,33.33-33.33h183.33
			c18.38,0,33.33,14.95,33.33,33.33v150C666,636.38,651.05,651.33,632.67,651.33z M449.33,451.33c-9.19,0-16.67,7.47-16.67,16.67
			v150c0,9.19,7.47,16.67,16.67,16.67h183.33c9.19,0,16.67-7.47,16.67-16.67V468c0-9.19-7.47-16.67-16.67-16.67H449.33z"/>
		<rect x="457.67" y="593" class="st0" width="166.67" height="16.67"/>
	</g>
</g>
</svg>
