<?xml version="1.0" encoding="utf-8"?>
<!-- Generator: Adobe Illustrator 27.0.0, SVG Export Plug-In . SVG Version: 6.00 Build 0)  -->
<svg version="1.1" id="Layer_1" xmlns="http://www.w3.org/2000/svg" xmlns:xlink="http://www.w3.org/1999/xlink" x="0px" y="0px"
	 viewBox="0 0 1080 1080" style="enable-background:new 0 0 1080 1080;" xml:space="preserve">
<style type="text/css">
	.st0{fill:#5F24E0;}
	.st1{opacity:0;}
</style>
<g id="mail" transform="translate(-1.5 -3.5)">
	<g id="Group_40">
		<path id="Path_51" class="st0" d="M541.5,562.06L419.79,501.2l5.32-10.64l116.39,58.19l116.38-58.19l5.32,10.64L541.5,562.06z"/>
		<path id="Rectangle_52" class="st0" d="M446.26,442.31h190.48c16.44,0,29.76,13.32,29.76,29.76v142.86
			c0,16.44-13.32,29.76-29.76,29.76H446.26c-16.44,0-29.76-13.32-29.76-29.76V472.07C416.5,455.63,429.82,442.31,446.26,442.31z
			 M636.74,632.79c9.86,0,17.86-7.99,17.86-17.86V472.07c0-9.86-7.99-17.86-17.86-17.86H446.26c-9.86,0-17.86,7.99-17.86,17.86
			v142.86c0,9.86,7.99,17.86,17.86,17.86H636.74z"/>
	</g>
</g>
</svg>
