<?xml version="1.0" encoding="utf-8"?>
<!-- Generator: Adobe Illustrator 27.0.0, SVG Export Plug-In . SVG Version: 6.00 Build 0)  -->
<svg version="1.1" id="Layer_1" xmlns="http://www.w3.org/2000/svg" xmlns:xlink="http://www.w3.org/1999/xlink" x="0px" y="0px"
	 viewBox="0 0 1080 1080" style="enable-background:new 0 0 1080 1080;" xml:space="preserve">
<style type="text/css">
	.st0{fill:#5F24E0;}
	.st1{opacity:0;}
</style>
<g id="NM_BT" transform="translate(-1797.755 -22.938)">
	<path id="Path_37" class="st0" d="M2340.1,478.19c-3.41,0-6.17-2.76-6.17-6.17c0,0,0,0,0,0v-25.73c0-3.41,2.77-6.17,6.18-6.17
		c3.41,0,6.17,2.76,6.17,6.17v25.73C2346.27,475.42,2343.51,478.18,2340.1,478.19"/>
	<path id="Path_38" class="st0" d="M2401.55,509.56c-3.41-0.03-6.15-2.82-6.12-6.23c0.01-1.62,0.66-3.16,1.8-4.31l22.12-22.12
		c2.41-2.41,6.32-2.41,8.73,0c2.41,2.41,2.41,6.32,0,8.73l-22.17,22.12c-1.14,1.15-2.7,1.8-4.32,1.81"/>
	<path id="Path_39" class="st0" d="M2268.83,509.56c-1.62-0.01-3.17-0.66-4.32-1.81l-22.17-22.1c-2.41-2.41-2.41-6.32,0-8.73
		c2.41-2.41,6.32-2.41,8.73,0l0,0l22.12,22.12c2.41,2.41,2.4,6.32-0.01,8.73c-1.14,1.14-2.69,1.79-4.31,1.8"/>
	<path id="Path_40" class="st0" d="M2456.59,569.58h-32.92c-3.41,0-6.17-2.76-6.18-6.17c0-3.41,2.76-6.17,6.17-6.18
		c0,0,0.01,0,0.01,0h32.92c3.41,0,6.17,2.77,6.17,6.18C2462.75,566.81,2459.99,569.57,2456.59,569.58"/>
	<path id="NM" class="st0" d="M2401.84,563.42c0,34.1-27.64,61.74-61.74,61.74s-61.74-27.64-61.74-61.74s27.64-61.74,61.74-61.74
		c18.02,0.1,35.12,7.96,46.92,21.58c9.67,11.11,14.94,25.37,14.82,40.09"/>
	<path id="Path_41" class="st0" d="M2335.18,685.76c-3.41,0-6.17-2.76-6.17-6.17l0,0v-25.73c0-3.41,2.76-6.17,6.17-6.18
		c3.41,0,6.17,2.76,6.18,6.17c0,0,0,0.01,0,0.01v25.73C2341.36,682.99,2338.59,685.76,2335.18,685.76L2335.18,685.76"/>
	<path id="Path_42" class="st0" d="M2251.62,650.78c-3.41-0.02-6.16-2.8-6.13-6.21c0.01-1.63,0.66-3.19,1.82-4.34l22.12-22.12
		c2.41-2.41,6.32-2.41,8.73,0c2.41,2.41,2.41,6.32,0,8.73l0,0l-22.17,22.15c-1.14,1.15-2.7,1.8-4.32,1.81"/>
	<path id="Path_43" class="st0" d="M2428.58,650.78c-1.62-0.01-3.17-0.67-4.32-1.81l-22.12-22.12c-2.41-2.41-2.41-6.32,0-8.73
		c2.41-2.41,6.32-2.41,8.73,0l22.12,22.12c2.42,2.41,2.42,6.31,0.02,8.73c-1.15,1.15-2.71,1.81-4.34,1.82"/>
	<path id="Path_44" class="st0" d="M2246.72,569.58h-27.79c-3.41,0-6.17-2.76-6.18-6.17c0-3.41,2.76-6.17,6.17-6.18
		c0,0,0.01,0,0.01,0h27.79c3.41,0,6.18,2.76,6.18,6.17C2252.9,566.81,2250.14,569.57,2246.72,569.58
		C2246.72,569.58,2246.72,569.58,2246.72,569.58"/>
</g>
</svg>
