<?xml version="1.0" encoding="utf-8"?>
<!-- Generator: Adobe Illustrator 27.0.0, SVG Export Plug-In . SVG Version: 6.00 Build 0)  -->
<svg version="1.1" id="Layer_1" xmlns="http://www.w3.org/2000/svg" xmlns:xlink="http://www.w3.org/1999/xlink" x="0px" y="0px"
	 viewBox="0 0 1080 1080" style="enable-background:new 0 0 1080 1080;" xml:space="preserve">
<style type="text/css">
	.st0{fill:#5F24E0;}
	.st1{opacity:0;}
</style>
<g id="Group_58" transform="translate(-1.65 -1.407)">
	<path class="st0" d="M624.48,666.4c-1.35,0-2.71-0.09-4.08-0.28c-51.66-5.62-101.01-28.52-138.8-64.43l-0.84-0.89
		c-35.56-37.7-58.23-86.78-63.84-138.32c-2.03-14.84,7.46-29.07,22.1-32.95l50.12-13.12l36.25,84.46l-29.63,30.06
		c7.22,11.35,15.57,21.98,24.88,31.66c9.55,9.17,20.17,17.51,31.48,24.72l30.06-29.63l84.46,36.24l-13.11,50.11
		C650.01,657.35,637.92,666.4,624.48,666.4z M490.06,593.24c35.87,34,82.67,55.67,131.81,61.03c9.19,1.24,17.78-4.46,20.12-13.29
		l10.5-40.14l-67.64-29.03l-31,30.55l-3.98-2.4c-13.55-8.19-26.23-17.93-37.68-28.93c-11.16-11.59-20.89-24.27-29.1-37.85l-2.4-3.98
		l30.55-30.99l-29.03-67.64l-40.17,10.51c-8.8,2.33-14.52,10.92-13.28,19.96c5.38,49.4,27.14,96.29,61.26,132.18L490.06,593.24z"/>
	<path class="st0" d="M665.54,525.02H653.6v-5.97c0-49.4-40.18-89.58-89.58-89.58h-5.97v-11.94h5.97
		c55.98,0,101.53,45.55,101.53,101.53V525.02z"/>
	<path class="st0" d="M617.76,525.02h-11.94v-5.97c0-23.05-18.76-41.8-41.8-41.8h-5.97V465.3h5.97c29.64,0,53.75,24.11,53.75,53.75
		V525.02z"/>
</g>
</svg>
