<?xml version="1.0" encoding="utf-8"?>
<!-- Generator: Adobe Illustrator 27.0.0, SVG Export Plug-In . SVG Version: 6.00 Build 0)  -->
<svg version="1.1" id="Layer_1" xmlns="http://www.w3.org/2000/svg" xmlns:xlink="http://www.w3.org/1999/xlink" x="0px" y="0px"
	 viewBox="0 0 1080 1080" style="enable-background:new 0 0 1080 1080;" xml:space="preserve">
<style type="text/css">
	.st0{fill:#5F24E0;}
	.st1{opacity:0;}
</style>
<g id="view-3_00000052083004325513709850000014493498833002701984_" transform="translate(-17.051 -8.66)">
	<g id="Group_46_00000020356752659345110440000012695269010706447029_" transform="translate(17.202 11)">
		<path class="st0" d="M539.85,585.15c-28.5,0-51.69-19.87-51.69-44.31s23.19-44.31,51.69-44.31c28.49,0,51.68,19.87,51.68,44.31
			S568.35,585.15,539.85,585.15z M539.85,511.31c-20.36,0-36.92,13.25-36.92,29.54s16.56,29.54,36.92,29.54s36.92-13.25,36.92-29.54
			S560.21,511.31,539.85,511.31z"/>
		<path class="st0" d="M539.85,628.64c-87.6,0-123.55-87.36-123.91-88.24l-1.1-2.74l1.1-2.74c0.35-0.88,36.31-88.24,123.91-88.24
			c87.57,0,123.55,87.36,123.9,88.24l1.1,2.74l-1.1,2.74C663.41,541.28,627.44,628.64,539.85,628.64z M430.85,537.66
			c6.48,14.16,38.87,76.21,109,76.21c69.41,0,102.48-62.35,108.99-76.24c-6.52-14.24-38.93-76.18-108.99-76.18
			C469.72,461.45,437.33,523.5,430.85,537.66z"/>
	</g>
</g>
</svg>
