<?xml version="1.0" encoding="utf-8"?>
<!-- Generator: Adobe Illustrator 27.0.0, SVG Export Plug-In . SVG Version: 6.00 Build 0)  -->
<svg version="1.1" id="Layer_1" xmlns="http://www.w3.org/2000/svg" xmlns:xlink="http://www.w3.org/1999/xlink" x="0px" y="0px"
	 viewBox="0 0 1080 1080" style="enable-background:new 0 0 1080 1080;" xml:space="preserve">
<style type="text/css">
	.st0{fill:#5F24E0;}
	.st1{opacity:0;}
</style>
<g id="lock-3" transform="translate(-3.962 -0.5)">
	<g id="Group_42" transform="translate(4.462 1)">
		<path class="st0" d="M610.02,512.38h-13.89v-59.92c-0.09-31.12-25.51-56.53-56.66-56.63c-31.1,0.09-56.51,25.51-56.6,56.65v59.89
			h-13.89v-59.92c0.12-38.77,31.74-70.39,70.49-70.51c38.79,0.12,70.42,31.74,70.54,70.48V512.38z"/>
		<path class="st0" d="M615.9,697.05H463.1c-26.79,0-48.6-21.8-48.6-48.6v-93.78c0-26.79,21.8-48.6,48.6-48.6h152.8
			c26.79,0,48.6,21.8,48.6,48.6v93.78C664.5,675.25,642.7,697.05,615.9,697.05z M463.1,519.96c-19.14,0-34.71,15.57-34.71,34.71
			v93.78c0,19.15,15.57,34.71,34.71,34.71h152.8c19.14,0,34.71-15.57,34.71-34.71v-93.78c0-19.15-15.57-34.71-34.71-34.71H463.1z"/>
		<rect x="532.56" y="604.45" class="st0" width="13.89" height="53.24"/>
		<path class="st0" d="M539.51,618.35c-18.43,0-33.43-15-33.43-33.44c0-18.44,15-33.44,33.43-33.44c18.44,0,33.44,15,33.44,33.44
			C572.94,603.35,557.95,618.35,539.51,618.35z M539.51,565.36c-10.78,0-19.55,8.77-19.55,19.55c0,10.78,8.77,19.55,19.55,19.55
			s19.55-8.77,19.55-19.55C559.06,574.13,550.29,565.36,539.51,565.36z"/>
	</g>
</g>
</svg>
