<?xml version="1.0" encoding="utf-8"?>
<!-- Generator: Adobe Illustrator 27.0.0, SVG Export Plug-In . SVG Version: 6.00 Build 0)  -->
<svg version="1.1" id="Layer_1" xmlns="http://www.w3.org/2000/svg" xmlns:xlink="http://www.w3.org/1999/xlink" x="0px" y="0px"
	 viewBox="0 0 1080 1080" style="enable-background:new 0 0 1080 1080;" xml:space="preserve">
<style type="text/css">
	.st0{fill:#5F24E0;}
	.st1{opacity:0;}
</style>
<g id="envelope" transform="translate(1022.304 284.817)">
	<g id="Group_49" transform="translate(2.73 3.911)">
		<path id="Path_65" class="st0" d="M-485.03,277.18c-4.94,0-9.79-1.29-14.07-3.75l-102.91-58.77c-6-3.42-8.08-11.06-4.66-17.06
			c3.42-6,11.06-8.08,17.06-4.66l0,0l102.92,58.81c1.02,0.58,2.27,0.58,3.28,0l102.94-58.81c6-3.42,13.64-1.34,17.06,4.66
			c3.42,6,1.34,13.64-4.66,17.06l-102.92,58.8C-475.26,275.9-480.1,277.18-485.03,277.18z"/>
		<path id="Rectangle_55" class="st0" d="M-578.78,145.02h187.5c17.25,0.02,31.23,14,31.25,31.25v150
			c-0.02,17.25-14,31.23-31.25,31.25h-187.5c-17.25-0.02-31.23-14-31.25-31.25v-150C-610.01,159.02-596.03,145.04-578.78,145.02z
			 M-391.28,332.52c3.45,0,6.25-2.8,6.25-6.25v-150c0-3.45-2.8-6.25-6.25-6.25h-187.5c-3.45,0-6.25,2.8-6.25,6.25v150
			c0,3.45,2.8,6.25,6.25,6.25H-391.28z"/>
	</g>
</g>
</svg>
