<?xml version="1.0" encoding="utf-8"?>
<!-- Generator: Adobe Illustrator 27.0.0, SVG Export Plug-In . SVG Version: 6.00 Build 0)  -->
<svg version="1.1" id="Layer_1" xmlns="http://www.w3.org/2000/svg" xmlns:xlink="http://www.w3.org/1999/xlink" x="0px" y="0px"
	 viewBox="0 0 1080 1080" style="enable-background:new 0 0 1080 1080;" xml:space="preserve">
<style type="text/css">
	.st0{fill:#5F24E0;}
	.st1{opacity:0;}
</style>
<g id="zoom-2" transform="translate(-3.5 -3.5)">
	<g id="Group_15" transform="translate(4 4)">
		<path class="st0" d="M647.06,658.69l-78.8-78.8l11.62-11.62l78.8,78.8c3.21,3.21,3.21,8.41,0,11.62l0,0
			C655.48,661.9,650.27,661.9,647.06,658.69z"/>
		<path class="st0" d="M513.14,611.78c-54.39,0-98.64-44.25-98.64-98.64c0-54.39,44.25-98.64,98.64-98.64
			c54.39,0,98.64,44.25,98.64,98.64C611.78,567.53,567.53,611.78,513.14,611.78z M513.14,430.94c-45.32,0-82.2,36.88-82.2,82.2
			s36.88,82.2,82.2,82.2s82.2-36.88,82.2-82.2S558.46,430.94,513.14,430.94z"/>
	</g>
</g>
</svg>
